<?xml version="1.0" encoding="utf-8"?>
<!-- Generator: Adobe Illustrator 25.0.1, SVG Export Plug-In . SVG Version: 6.00 Build 0)  -->
<svg version="1.0" id="Layer_1" xmlns="http://www.w3.org/2000/svg" xmlns:xlink="http://www.w3.org/1999/xlink" x="0px" y="0px"
	 viewBox="0 0 1445.7 1082.7" style="enable-background:new 0 0 1445.7 1082.7;" xml:space="preserve">
<style type="text/css">
	.st0{display:none;}
	.st1{display:inline;}
	.st2{fill:#825C3C;}
	.st3{fill:#6B4B32;}
	.st4{fill:#936747;}
</style>
<g>
	<g class="st0">
		<path class="st1" d="M468.8,757.4c4.3-0.3,7.5-0.5,9.8-0.7c6.8-0.5,17.2-0.9,20.8-0.9c19.2,0,28.9,2.4,36.5,9.3
			c7.1,6.2,11,15.3,11,25.1c0,21.5-15.4,34.5-40.8,34.5c-1.1,0-3,0-5-0.1V845h-32.3V757.4L468.8,757.4z M501.1,800.2
			c1.3,0,3,0.1,3.6,0.1c7.3,0,11.4-3.2,11.4-9c0-5.4-4.7-9.4-11-9.4h-4V800.2L501.1,800.2z"/>
		<path class="st1" d="M614,788.1c5.8,5.4,9,12.8,9.5,21.6c1.3,21.7-15,37.4-38.8,37.4c-11.9,0-21.7-3.5-28.3-10.1
			c-5.8-5.8-9.5-14.6-9.5-22.8c0-20.8,14.4-34.9,36.8-36.2C595.2,777.4,606.6,781.1,614,788.1z M576.5,812.4
			c0.4,6.8,4.2,11.7,9.1,11.7c5.5,0,8.7-4.8,7.9-12.2c-0.7-6.3-4.3-10.5-9-10.5C579.6,801.4,576.1,805.9,576.5,812.4z"/>
		<path class="st1" d="M693.5,788.1c5.8,5.4,9,12.8,9.5,21.6c1.3,21.7-15,37.4-38.8,37.4c-11.9,0-21.7-3.5-28.3-10.1
			c-5.8-5.8-9.5-14.6-9.5-22.8c0-20.8,14.4-34.9,36.8-36.2C674.7,777.4,686.1,781.1,693.5,788.1z M656.1,812.4
			c0.4,6.8,4.2,11.7,9.1,11.7c5.5,0,8.7-4.8,7.9-12.2c-0.7-6.3-4.3-10.5-9-10.5C659.2,801.4,655.7,805.9,656.1,812.4z"/>
		<path class="st1" d="M769.3,789.4c-4.8-3.9-8.5-5.4-13.7-5.4c-8.9,0-15.4,7.1-15.4,16.8s7.4,17.3,16.5,17.3
			c5.8,0,10.2-1.7,15.6-5.8l13.8,25c-11.4,7.9-23.3,11.3-36.5,10.3c-25.9-1.7-43.6-20.9-43.6-47.5c0-11.9,4.8-24.2,12.9-32.2
			c8.5-8.5,21.5-13.7,33.9-13.7c13.3,0,22.5,3,33.3,10.6L769.3,789.4z"/>
		<path class="st1" d="M850.5,788.1c5.8,5.4,9,12.8,9.5,21.6c1.3,21.7-15,37.4-38.8,37.4c-11.9,0-21.7-3.5-28.3-10.1
			c-5.8-5.8-9.5-14.6-9.5-22.8c0-20.8,14.4-34.9,36.8-36.2C831.7,777.4,843.1,781.1,850.5,788.1z M813.1,812.4
			c0.4,6.8,4.2,11.7,9.1,11.7c5.5,0,8.7-4.8,7.9-12.2c-0.7-6.3-4.3-10.5-9-10.5C816.2,801.4,812.7,805.9,813.1,812.4z"/>
		<path class="st1" d="M894.9,845h-30.3v-64.3h30.3V845z M893.2,765.4c0,7-4.8,11.5-12.2,11.5c-7.3,0-12.2-4.7-12.2-11.5
			s5-11.5,12.2-11.5S893.2,758.6,893.2,765.4z"/>
		<path class="st1" d="M923.4,778.6c4,2.5,5.2,4.7,6.2,10.3c6.3-7.4,13.5-10.9,23.1-10.9c8.7,0,16.4,4.3,19.7,11
			c1.7,3.3,2.3,7.3,2.3,14.5V845h-30.3v-33.4c0-5.5-1.7-7.8-6.2-7.8c-2.3,0-4.6,1.1-6.7,3.3V845h-30.3v-40c0-14.1-0.5-16.8-3.8-21.6
			L923.4,778.6z"/>
	</g>
	<path class="st2" d="M1020.6,695.1c-14-23.7-33.2-45.8-51.6-63c-13.2-2.4-26.3-4.9-38.4-10.3c-8.8-3.9-16.6-11.3-18.4-20.8
		c-3.5-18.9,14.8-29.4,31.4-29.1c11.8,0.1,18.2,3.5,33.8,8.6c5.3-4.6-0.7-32.4-1.9-38.8c-8.4-46.8-50.5-74.8-83.6-104.3
		c-28.7-25.6-61.4-50.8-81.8-83.4c-20-31.9-31.4-69.2-31.4-106.9c0-32.4,8.5-64.5,24.3-92.7c-30.3,7.3-59,19.6-86,34.7
		c-52,48.1-88.9,109.4-124,170.7c-9.6,15.4-14.8,33.7-15.6,51.6c0.1,0,0.3,0.1,0.4,0.1c15.5,4,33.9,9.6,42.6,24.2
		c11.6,19.2-8.5,40.6-28.3,36c-16.3-3.8-31.4-9.7-46.9-14.6c-41.9,4.2-76.3,38.8-91.1,76.8c-10.2,28.7-7.2,59,9.2,84.3
		c6-0.2,11.9,0,17.9,0.4c17.6,1.4,39.6,5,55.1,13.8c13.7,7.8,22,24.1,11.7,38.3c-14.9,20.5-37.5,3.4-55.3-0.8
		c-1.6-0.4-3.2-0.7-4.8-0.9c-74.6,19.4-94.6,110.8-56.2,169.8c11.5,17.7,26.3,32.9,42.1,46.8c11.7,10.3,33.6,33,48.9,35.9
		c56.8,10.8,116,15,171.8,16c89,1.5,178.1-7.5,265.2-25.7c8.2-1.7,16.4-3.6,24.6-5.7c7.7-2,19.9-21.6,24.8-27.9
		C1049.9,825.6,1054.4,752.2,1020.6,695.1z"/>
	<path d="M1106.6,651.9c-15.1-17-33.2-31.8-53.4-43.7c7.1-8.6,21.5-42.9,22.9-48.4c4.3-17.2,4.7-35.4,1.9-52.9
		c-10.7-67.1-71-97-123.3-129.1c-37.6-23.1-75-56.6-87.7-100.3c-8.1-27.7-3-57.6,10.6-82.6c7-12.9,16.3-24.7,27.3-34.4
		c9.6-8.5,21.6-13.7,25.1-27.2c12.8-49.3-94.1-35-118.3-30.9C728.4,116.7,653,165.2,590,219.5c-28.4,24.5-57.1,48.5-79.2,79.1
		c-10.8,15-20.1,31.2-26.4,48.6c-1.6,4.4-11.4,54.5-8.9,54c-12.4,2.2-24.4,6.1-35.9,11.6c-47,22.7-78.9,72.2-89.3,122.3
		c-7.8,37.8-3,80.7,20.6,112.3c-1.4-1.8-24.4,17.3-26.7,19.3c-41.8,36.6-62.7,95.4-51.2,150.1c5.6,26.7,18.7,51.5,37.2,71.6
		c48.1,52.2,122.3,70.2,189.6,81.7c105,18,214.7,18.5,320.7,9.4c102.2-8.7,231.4-25.4,290.1-120.5
		C1174.6,788,1156.8,708.3,1106.6,651.9z M1107.7,788.8c-4.6,37.4-26.1,69.8-57.6,90.2c-27,17.5-58.7,26.3-90.2,32.9
		c-87.1,18.2-176.2,27.3-265.2,25.7c-83.7-1.4-174.7-10.3-254.5-37.3c-42.1-14.3-83-42.6-96.7-85c-22.1-67.8,36.5-127.5,98.3-143.9
		c16.6-4.4,34.4-5.3,51.1-1.3c17.9,4.2,40.5,21.3,55.3,0.8c10.3-14.2,2-30.5-11.7-38.3c-15.5-8.9-37.6-12.4-55.1-13.8
		c-10.4-0.8-21-0.7-31.4,0.5c-3.6,0.4-30.3,8.2-31.3,7.2c-60.9-58.5,2.3-175.6,80.4-177.2c34-0.7,61.3,15,93.2,22.4
		c19.8,4.6,39.9-16.8,28.3-36c-8.8-14.6-27.2-20.2-42.6-24.2c-4.1-1-52.5-9.7-52.5-10.6c-1.3-53.4,44.4-95.9,80.7-129
		c64.8-59,147.5-119,243.6-124.5c-37.6,24.7-41.3,88.8-34.4,128.6c14.5,83.1,82.3,126.8,150.3,165.1c19.5,11,39.7,23.7,52.4,42.5
		c11.5,17,14.5,38.9,10.7,58.8c-1.6,8.4-4.7,16.4-7.9,24.2c-0.9,2.1-9,23.3-11,22.8c-42.9-10.1-48.4-17.4-66.1-17.6
		c-16.6-0.2-34.9,10.2-31.4,29.1c1.7,9.5,9.6,16.9,18.4,20.8c25.7,11.3,55.5,9.8,81.8,22C1068.9,669.7,1115.8,723.1,1107.7,788.8z"
		/>
	<g>
		<path d="M642.4,774.9c6.2,5.2,13.7,9.2,20.1,12.2c41.7,19.6,93.2,19.7,134.3-1.5c10.9-5.6,24.8-12,31.3-23
			c7.5-12.8,0.3-31.4-14.1-35.4c-5.7-1.6-11.8-0.9-17.4,1c-16.6,5.5-27.2,15.8-44.5,20.1c-15.5,3.8-32,3.5-47.4-0.6
			c-15.1-4.1-31.9-16.8-47.1-19.2c-11.4-1.8-22.4,7-26.4,17.3C627.1,757.1,633.8,767.8,642.4,774.9z"/>
	</g>
	<g>
		<path d="M611.8,604.4c-1.7,22.6,13.5,46.9,38.6,45c23.5-1.8,38.1-27.2,33.5-49.1c-6.1-29.2-43.9-42.5-63.8-17.8
			C615.1,588.7,612.4,596.5,611.8,604.4z"/>
	</g>
	<g>
		<path d="M776.5,604.4c-1.7,22.6,13.5,46.9,38.6,45c23.5-1.8,38.1-27.2,33.5-49.1c-6.1-29.2-43.9-42.5-63.8-17.8
			C779.8,588.7,777.1,596.5,776.5,604.4z"/>
	</g>
	<g>
		<path class="st3" d="M930.6,917.7c2.4-0.4,4.8-0.9,7.2-1.3C935.4,916.8,933,917.2,930.6,917.7z"/>
		<path class="st3" d="M959.4,630.2c-0.2,0-0.4-0.1-0.6-0.1C959,630.2,959.2,630.2,959.4,630.2z"/>
		<path class="st3" d="M915.3,920.4c2.5-0.4,5-0.9,7.6-1.3C920.4,919.5,917.9,919.9,915.3,920.4z"/>
		<path class="st3" d="M913.2,604.5c0.4,1.1,0.9,2.1,1.4,3.2C914,606.7,913.6,605.6,913.2,604.5z"/>
		<path class="st3" d="M912.3,601.2c0.2,1.1,0.5,2.2,0.9,3.3C912.8,603.4,912.5,602.3,912.3,601.2z"/>
		<path class="st3" d="M914.6,607.8c0.5,1,1.2,2,1.8,2.9C915.8,609.8,915.2,608.8,914.6,607.8z"/>
		<path class="st3" d="M948,572.1c-0.1,0-0.3,0-0.5,0C947.7,572.1,947.9,572.1,948,572.1z"/>
		<path class="st3" d="M954.6,629.2c-0.3-0.1-0.7-0.2-1.1-0.2C953.8,629.1,954.2,629.2,954.6,629.2z"/>
		<path class="st3" d="M946.1,572c-0.1,0-0.2,0-0.4,0C945.8,572,945.9,572,946.1,572z"/>
		<path class="st3" d="M949.7,628.1c-0.4-0.1-0.9-0.2-1.3-0.3C948.8,627.9,949.3,628,949.7,628.1z"/>
		<path class="st3" d="M945.7,914.8c2-0.4,4-0.8,6-1.2C949.7,914,947.7,914.4,945.7,914.8z"/>
		<path class="st3" d="M918.7,613.5c-0.8-0.8-1.5-1.7-2.2-2.7C917.2,611.7,917.9,612.6,918.7,613.5z"/>
		<path class="st3" d="M938.4,624.8c0.5,0.2,1.1,0.4,1.6,0.5C939.5,625.2,939,625,938.4,624.8z"/>
		<path class="st3" d="M933.5,623c0.6,0.2,1.1,0.5,1.7,0.7C934.7,623.5,934.1,623.2,933.5,623z"/>
		<path class="st3" d="M849.7,147.4c-19.9,1.1-39.1,4.7-57.8,10c3.7-1,7.4-2,11.2-2.9c-15.8,28.2-24.3,60.3-24.3,92.7
			c0,37.7,11.5,75,31.4,106.9c20.4,32.7,53.2,57.9,81.8,83.4c33.1,29.5,75.2,57.5,83.6,104.3c1.1,6.4,7.1,34.2,1.9,38.8
			c-8.3-2.7-14-5-19.3-6.5c10.2,2.9,22.1,8.5,51.5,15.4c2,0.5,10.1-20.7,11-22.8c3.2-7.9,6.3-15.8,7.9-24.2
			c3.9-20,0.8-41.8-10.7-58.8c-12.7-18.9-32.9-31.6-52.4-42.5c-67.9-38.3-135.8-82-150.3-165.2C808.4,236.2,812.2,172.1,849.7,147.4
			z"/>
		<path class="st3" d="M943.3,626.4c0.5,0.1,1,0.3,1.5,0.4C944.3,626.7,943.8,626.5,943.3,626.4z"/>
		<path class="st3" d="M927.5,620.3c1,0.5,2,1,3,1.5C929.5,621.3,928.5,620.8,927.5,620.3z"/>
		<path class="st3" d="M921.5,616.1c0.8,0.7,1.7,1.4,2.6,2C923.2,617.5,922.3,616.8,921.5,616.1z"/>
		<path class="st3" d="M921.3,615.9c-0.8-0.7-1.7-1.5-2.4-2.3C919.6,614.4,920.4,615.2,921.3,615.9z"/>
		<path class="st3" d="M924.4,618.4c0.9,0.6,1.9,1.2,2.8,1.8C926.3,619.6,925.3,619,924.4,618.4z"/>
		<path class="st3" d="M912.2,592.9c1.4-8.6,8-14.8,16.2-18.2C920.1,578.1,913.6,584.3,912.2,592.9z"/>
		<path class="st3" d="M770.1,164.5c2.2-0.8,4.3-1.5,6.5-2.3C774.4,162.9,772.2,163.7,770.1,164.5z"/>
		<path class="st3" d="M765.1,166.4c-1.8,0.7-3.6,1.3-5.4,2.1l0,0C761.5,167.8,763.3,167.1,765.1,166.4z"/>
		<path class="st3" d="M767.4,936.5c1.3-0.1,2.7-0.1,4.1-0.2C770.1,936.4,768.7,936.5,767.4,936.5z"/>
		<path class="st3" d="M820.1,932.9c1.6-0.1,3.3-0.3,4.9-0.4C823.4,932.6,821.7,932.8,820.1,932.9z"/>
		<path class="st3" d="M789.5,158.1c-2.9,0.8-5.7,1.7-8.6,2.6C783.8,159.8,786.6,158.9,789.5,158.1z"/>
		<path class="st3" d="M782.1,935.8c1.2-0.1,2.4-0.1,3.6-0.2C784.5,935.6,783.3,935.7,782.1,935.8z"/>
		<path class="st3" d="M984.2,906.3c-3.7,1-7.4,1.9-11.1,2.7C976.8,908.1,980.5,907.2,984.2,906.3z"/>
		<path class="st3" d="M753.2,937.1c1.1,0,2.2-0.1,3.4-0.1C755.5,937,754.3,937.1,753.2,937.1z"/>
		<path class="st3" d="M1012.5,643.8c-13.9-6.4-28.7-9-43.5-11.7c18.5,17.2,37.6,39.3,51.6,63c33.8,57.1,29.3,130.5-11.4,183.2
			c-4.9,6.3-17,25.8-24.7,27.9c23.1-6.1,45.6-14.3,65.6-27.1c31.6-20.4,53-52.8,57.6-90.2C1115.8,723.1,1068.9,669.7,1012.5,643.8z"
			/>
		<path class="st3" d="M950,572.4c-0.1,0-0.2,0-0.3,0C949.8,572.3,949.9,572.3,950,572.4z"/>
		<path class="st3" d="M971.7,909.3c-3.3,0.8-6.7,1.5-10.1,2.2C965,910.8,968.4,910.1,971.7,909.3z"/>
		<path class="st3" d="M953.9,573c-0.3,0-0.5-0.1-0.8-0.2C953.4,572.9,953.6,573,953.9,573z"/>
		<path class="st3" d="M834.1,931.5c2.1-0.2,4.1-0.4,6.2-0.6C838.2,931.1,836.1,931.3,834.1,931.5z"/>
		<path class="st3" d="M958.1,574c-0.4-0.1-0.9-0.2-1.3-0.3C957.3,573.8,957.7,573.9,958.1,574z"/>
		<path class="st3" d="M952.2,572.7c-0.2,0-0.5-0.1-0.7-0.1C951.7,572.6,952,572.6,952.2,572.7z"/>
		<path class="st3" d="M956.7,573.6c-0.7-0.2-1.4-0.3-2-0.5C955.3,573.3,956,573.5,956.7,573.6z"/>
		<path class="st3" d="M848.8,929.9c2.2-0.2,4.5-0.5,6.7-0.8C853.3,929.4,851.1,929.7,848.8,929.9z"/>
		<path class="st3" d="M899.9,922.9c2.7-0.4,5.3-0.8,7.9-1.3C905.2,922.1,902.6,922.5,899.9,922.9z"/>
		<path class="st3" d="M863.8,928.1c2.5-0.3,5-0.7,7.5-1C868.8,927.5,866.3,927.8,863.8,928.1z"/>
		<path class="st3" d="M892.7,924c-3.8,0.6-7.6,1.1-11.5,1.7C885.1,925.2,888.9,924.6,892.7,924z"/>
	</g>
	<g>
		<path class="st4" d="M548.3,670.9c0.6-0.9,1.2-1.8,1.7-2.7C549.5,669.1,548.9,670,548.3,670.9c-8,11.1-18.3,11.2-28.8,8.3
			C530,682.1,540.2,682,548.3,670.9z"/>
		<path class="st4" d="M593.2,359.8c35-61.3,72-122.6,124-170.7c3.3-1.9,6.7-3.7,10.1-5.5c-45.2,23.8-85.8,56.2-121.1,88.3
			c-36.3,33.1-82,75.6-80.7,129c0,0.9,46,9.1,52.1,10.5C578.4,393.5,583.6,375.2,593.2,359.8z"/>
		<path class="st4" d="M536.5,632.6c-0.8-0.4-1.6-0.9-2.4-1.3C534.9,631.7,535.7,632.1,536.5,632.6c0.5,0.3,0.9,0.6,1.4,0.9
			C537.5,633.2,537,632.9,536.5,632.6z"/>
		<path class="st4" d="M592.3,471.7c6.3,1.5,12.7,0.3,18-2.6C604.9,472,598.6,473.2,592.3,471.7c-16.3-3.8-31.4-9.7-46.9-14.6
			C560.8,462,576,468,592.3,471.7z"/>
		<path class="st4" d="M734,180.2c-2.2,1.1-4.5,2.2-6.7,3.4C729.6,182.4,731.8,181.3,734,180.2z"/>
		<path class="st4" d="M583.3,413c4.6,1.3,9.3,2.8,13.9,4.7C592.6,415.7,587.9,414.2,583.3,413z"/>
		<path class="st4" d="M759.7,168.5L759.7,168.5c-0.1,0-0.2,0.1-0.4,0.1C759.4,168.6,759.6,168.5,759.7,168.5z"/>
		<path class="st4" d="M753.5,171.1c-1.7,0.7-3.4,1.4-5,2.1C750.2,172.5,751.8,171.8,753.5,171.1z"/>
		<path class="st4" d="M743.4,175.7c-1.8,0.9-3.7,1.7-5.6,2.6C739.7,177.4,741.5,176.5,743.4,175.7z"/>
		<path class="st4" d="M522.9,921.6c-15.2-2.9-37.2-25.6-48.9-35.9c-15.7-13.9-30.5-29.1-42.1-46.8c-38.5-59-18.5-150.4,56.1-169.7
			c-15.3-2.7-31.3-1.6-46.3,2.3c-61.8,16.4-120.3,76.1-98.3,143.9c13.8,42.3,54.6,70.6,96.7,85c43.1,14.6,89.6,23.9,136.4,29.6
			C558.6,927.7,540.6,925,522.9,921.6z"/>
		<path class="st4" d="M606.9,933.1c-6.4-0.6-12.7-1.2-19.1-1.9C594.2,931.9,600.6,932.5,606.9,933.1z"/>
		<path class="st4" d="M576.7,929.9c3.6,0.4,7.1,0.8,10.7,1.2C583.8,930.8,580.2,930.3,576.7,929.9z"/>
		<path class="st4" d="M716.6,937.8c1.2,0,2.4,0,3.7,0C719,937.8,717.8,937.8,716.6,937.8z"/>
		<path class="st4" d="M624.2,934.5c4,0.3,8,0.6,11.9,0.8C632.1,935.1,628.2,934.8,624.2,934.5z"/>
		<path class="st4" d="M450,619.2c4.5-0.5,9-0.8,13.5-0.9c-16.3-25.3-19.4-55.6-9.2-84.3c14.8-38.1,49.1-72.6,91.1-76.8
			c-14.7-4.6-29.7-8.2-46.3-7.9c-78,1.6-141.3,118.6-80.4,177.2C419.7,627.4,446.4,619.7,450,619.2z"/>
		<path class="st4" d="M677.1,937.2c1.2,0,2.5,0.1,3.7,0.1C679.5,937.3,678.3,937.2,677.1,937.2z"/>
		<path class="st4" d="M610.1,933.4c2.9,0.2,5.9,0.5,8.8,0.7C616,933.9,613,933.6,610.1,933.4z"/>
		<path class="st4" d="M643.8,935.8c2,0.1,4.1,0.2,6.2,0.3C647.9,936,645.8,935.9,643.8,935.8z"/>
		<path class="st4" d="M660.9,936.6c1.3,0,2.6,0.1,3.9,0.2C663.5,936.7,662.2,936.7,660.9,936.6z"/>
	</g>
</g>
</svg>
